<?xml version="1.0" encoding="UTF-8" standalone="no"?>
<svg width="550px" height="440px" viewBox="0 0 550 440" version="1.1" xmlns="http://www.w3.org/2000/svg" xmlns:xlink="http://www.w3.org/1999/xlink" xmlns:sketch="http://www.bohemiancoding.com/sketch/ns">
    <!-- Generator: Sketch 3.5.1 (25234) - http://www.bohemiancoding.com/sketch -->
    <title>map</title>
    <desc>Created with Sketch.</desc>
    <defs>
        <rect id="path-1" x="0" y="0" width="550" height="440"></rect>
    </defs>
    <g id="关于" stroke="none" stroke-width="1" fill="none" fill-rule="evenodd" sketch:type="MSPage">
        <g id="关于-公司简介" sketch:type="MSArtboardGroup" transform="translate(-675.000000, -598.000000)">
            <g id="map" sketch:type="MSLayerGroup" transform="translate(675.000000, 598.000000)">
                <g id="Fill-1">
                    <mask id="mask-2" sketch:name="Mask" fill="white">
                        <use xlink:href="#path-1"></use>
                    </mask>
                    <use id="Mask" fill="#99D0F6" sketch:type="MSShapeGroup" xlink:href="#path-1"></use>
                    <path d="M111.780819,485.880778 C107.015185,483.779202 102.950788,483.498494 100.848145,480.69675 C99.8672678,476.771105 99.7274474,470.744953 101.128853,467.941074 C102.249551,467.380725 104.632902,466.820376 105.894487,465.979319 C106.034308,464.297205 106.175196,462.616158 106.315016,460.934044 C107.856242,459.392818 109.398536,461.214752 112.201348,460.652269 C114.443811,459.392818 116.686274,458.130165 118.927669,456.869647 C122.992067,456.588939 127.197352,456.309298 131.402637,456.16841 C132.243694,456.588939 134.486157,457.991412 135.605788,460.373695 L135.605788,463.037754 C135.186327,463.736856 134.765798,464.438093 134.486157,465.278082 C132.523335,468.081962 130.56158,470.744953 129.019287,473.969361 C128.739646,475.228812 128.458938,476.771105 126.917711,478.312332 C122.852247,480.274087 118.787849,483.358674 115.564509,485.321496 C114.302923,485.461316 113.042405,485.601137 111.780819,485.880778 Z M120.610317,454.34765 C117.385909,451.684658 117.526797,450.143432 116.68574,447.899901 C115.425222,446.079034 114.303457,444.39692 113.182759,442.714806 C113.182759,439.20969 112.481522,437.388823 115.563975,435.847597 C115.563975,435.565821 115.563975,435.287248 115.704863,435.005473 C112.060994,435.005473 111.640465,436.546699 109.398002,437.809352 L105.053964,437.809352 C104.773256,436.546699 104.632368,435.424934 104.492548,434.306371 C101.269207,433.323358 102.109197,432.203728 101.12832,431.222851 C99.3063852,431.222851 100.42815,433.043718 99.447273,435.14636 L98.0447997,435.14636 C96.9241019,434.024595 94.2611104,435.005473 93.7007614,435.565821 C88.0951377,435.565821 83.3295036,434.306371 79.2651061,434.024595 C75.900878,432.342481 73.0980661,427.297206 71.5568398,425.335451 L71.5568398,422.252999 C72.3978968,420.432131 73.5185946,418.60913 73.5185946,417.065769 C72.5377172,416.364532 71.5568398,415.66543 70.7157828,415.104014 C66.0910364,414.823306 57.5406457,414.261889 55.7197785,411.179437 C55.4390704,410.479267 55.1594296,409.778031 54.8787215,409.078929 C54.5980134,408.938041 54.3183726,408.797153 54.1785522,408.797153 C50.8143241,408.797153 48.0104448,411.319257 46.889747,414.123136 C45.9088696,414.964193 44.9269248,415.804183 44.0869351,416.787195 L39.0416603,416.787195 C38.480244,418.047713 36.0979606,420.150356 34.8374424,420.990346 C33.7156773,420.990346 32.7347998,420.990346 31.7539224,421.131233 C31.0526858,420.291244 30.3514491,419.449119 29.6512798,418.74895 C28.8102228,416.225779 23.7649479,420.291244 23.0637113,420.432131 C21.9430135,420.291244 20.8212483,420.291244 19.8403709,420.291244 C17.4580875,417.906826 16.196502,416.924881 14.2347471,417.347544 C12.9720942,418.74895 11.711576,420.150356 10.4499905,421.550695 C9.1884049,421.550695 7.92788668,421.550695 6.80612153,421.691582 C5.12507479,420.570885 4.14313003,419.870715 3.302073,419.870715 C1.34031814,421.83247 1.90066705,421.131233 1.48013854,423.653337 C3.72260152,426.598104 3.86348924,426.736857 3.86348924,431.642312 C3.1622526,433.744954 4.00224231,435.706709 4.84436667,438.649341 C4.70454628,439.491466 4.70454628,440.331456 4.70454628,441.172513 C4.28295043,441.593041 3.86348924,442.15339 3.44189339,442.714806 C2.46101597,442.714806 1.48013854,442.714806 0.639081504,442.854627 C-1.74213454,441.172513 -4.12548524,439.491466 -6.36794822,437.950239 L-6.36794822,431.502491 C-7.34989298,430.380726 -8.05006229,430.380726 -8.7502316,430.239838 C-10.2925253,431.502491 -12.9555168,434.165483 -14.6365635,435.005473 L-15.6185083,435.005473 C-16.7392061,433.883707 -18.0007916,433.604067 -18.7020283,433.323358 C-20.2432546,431.222851 -21.0832443,429.820377 -22.0651891,429.258961 C-23.0460665,427.998443 -24.0269439,426.877745 -24.868001,425.75598 C-33.8378529,425.194564 -32.5773347,422.252999 -32.5773347,415.383655 C-32.2966265,414.543665 -32.0159184,413.703675 -31.5964572,412.861551 C-31.7352103,411.880673 -31.7352103,410.899796 -31.7352103,409.918919 C-33.4173244,409.35857 -35.0994384,408.797153 -36.6406648,408.377692 C-36.9213729,408.095917 -37.202081,407.816276 -37.3408341,407.537703 L-37.3408341,404.873644 C-38.043138,404.873644 -38.6024196,401.650303 -38.6024196,401.229775 C-39.3036563,399.829436 -40.0048929,398.425896 -40.5652418,397.165377 C-41.4062988,393.380621 -42.2473559,393.10098 -44.2091107,393.10098 C-46.1708656,394.081857 -47.9928001,395.062735 -49.8147345,396.1845 C-52.3379056,396.1845 -53.0380749,395.903792 -53.8801993,395.062735 L-53.8801993,382.028485 C-51.3570282,374.59986 -47.151743,371.51634 -40.5652418,367.172302 C-38.8831277,367.172302 -39.1627685,360.5858 -39.1627685,360.444913 C-37.6215422,356.941931 -37.9022503,354.699468 -37.7624299,351.755769 C-37.4817218,349.512239 -37.3408341,348.95189 -36.3599566,347.971012 C-36.3599566,346.569606 -36.2212036,345.169268 -36.0803159,343.906615 C-37.9022503,340.121858 -41.6859396,339.142048 -42.6678844,337.039405 L-42.6678844,332.135018 C-42.9475252,331.994131 -43.0884129,331.994131 -43.2282333,331.994131 C-44.6296393,329.191319 -46.5913941,327.089743 -47.8529797,325.827091 L-50.5159712,325.827091 C-51.2161405,326.528327 -51.9184444,327.227429 -52.6186137,327.929733 C-52.6186137,329.892555 -52.477726,333.676245 -54.4405482,335.637999 L-57.6628213,335.637999 C-61.4475779,333.817132 -62.9898716,333.256783 -62.9898716,330.032376 C-66.3540997,328.349194 -69.1569116,327.788845 -70.8379584,327.089743 C-71.3983073,326.387439 -71.9586562,325.686203 -72.3791847,325.125854 L-74.3420069,325.125854 C-77.4255269,327.650092 -80.9285081,329.752735 -84.1529158,331.715557 C-88.6367745,332.555547 -88.3571337,333.955885 -90.739417,336.900652 C-96.0654,336.900652 -95.9255796,338.020283 -99.14892,341.945927 C-101.110675,343.205378 -103.633846,343.487154 -105.595601,343.906615 C-105.735421,344.186256 -105.876309,344.468031 -105.876309,344.747672 C-110.501055,344.468031 -114.985981,344.186256 -119.470907,344.047502 C-122.55336,344.747672 -126.338117,344.608919 -127.739523,342.506276 C-127.88041,341.664152 -127.88041,340.824162 -127.88041,339.984172 C-127.038286,338.020283 -126.197229,336.058528 -125.216351,334.096773 C-127.599702,333.256783 -129.561457,331.433782 -130.402514,330.733612 C-130.823043,329.331139 -131.243571,328.070621 -131.524279,326.807968 C-134.607799,326.807968 -136.429734,326.528327 -138.531309,325.827091 C-139.372366,324.846213 -140.072535,323.865336 -140.774839,323.025346 C-142.596774,322.324109 -144.27782,321.622873 -145.959934,320.922703 C-149.883444,318.259712 -153.107852,316.718486 -155.629956,320.781816 C-157.032429,321.48412 -158.292947,322.183222 -159.554533,322.884458 C-160.114882,323.304987 -160.676298,323.865336 -161.095759,324.425685 C-161.796996,326.807968 -162.497165,329.191319 -163.198402,331.715557 L-166.281922,331.715557 C-170.906668,330.172196 -169.925791,326.807968 -169.925791,324.144976 C-169.365442,322.602683 -168.804025,321.061456 -168.243677,319.661118 C-168.804025,318.821128 -169.365442,318.118824 -170.065611,317.977936 C-174.551604,318.259712 -178.754755,319.240589 -181.978095,320.922703 C-183.660209,322.602683 -187.865494,320.781816 -188.284956,320.501108 C-190.10689,318.4006 -191.789004,316.43671 -193.471118,314.474955 C-196.975167,314.474955 -200.478148,314.474955 -203.982196,314.615843 C-204.542545,314.334068 -204.964141,314.055494 -205.383602,313.775853 C-207.487312,310.831086 -207.626065,308.308983 -208.747831,306.766689 C-211.131181,306.34616 -212.250812,304.945822 -212.53152,304.10263 C-213.653285,303.403528 -214.77505,302.843179 -215.894681,302.281763 C-216.735738,301.439639 -218.69856,301.862302 -218.69856,301.862302 C-220.099966,300.881424 -221.361551,299.898412 -222.623137,299.058423 C-226.546647,295.134913 -225.00542,290.789807 -226.267006,287.5654 C-228.228761,287.5654 -230.191583,287.706287 -232.153338,287.847175 C-235.937027,286.584522 -236.497376,285.183116 -236.918972,283.080474 C-237.478253,282.099596 -238.03967,281.259606 -238.600019,280.417482 C-241.264077,278.455727 -243.926002,276.493972 -246.588993,274.532217 C-248.130219,272.010114 -249.671446,269.485875 -251.073919,266.963772 C-254.297259,266.963772 -256.119194,268.366245 -258.080949,269.626763 L-264.387809,269.626763 C-266.91098,267.943582 -267.891858,266.263602 -268.732915,265.141837 C-269.152376,264.30078 -269.433084,263.459723 -269.713792,262.618666 C-270.134321,257.853032 -272.797312,255.19004 -274.338539,252.388296 C-276.721889,250.847069 -279.104173,249.444596 -281.487523,248.04319 C-284.710864,247.062313 -287.513676,245.940548 -289.054902,244.818783 C-290.456308,241.315801 -288.774194,238.933518 -286.671551,236.830875 C-286.531731,233.466647 -286.25209,230.244374 -285.971382,227.021034 C-288.213845,220.994881 -288.774194,220.293645 -282.327513,220.293645 C-280.785219,221.41541 -280.505579,221.554163 -278.963285,224.63875 C-278.404003,224.777503 -277.842587,224.918391 -277.282238,225.198032 C-274.899955,222.815749 -276.020653,217.06817 -276.020653,214.686954 C-277.00153,211.744321 -277.982407,208.799554 -278.963285,205.85799 C-278.963285,199.690949 -279.243993,199.410241 -275.880832,196.046013 C-275.600124,195.345844 -275.179596,194.645675 -274.760134,194.084258 L-274.760134,193.103381 C-276.441181,191.982683 -277.982407,190.860918 -279.524701,189.880041 C-280.505579,189.880041 -280.785219,188.758275 -281.065927,188.197926 C-283.589099,186.095284 -282.467333,182.171774 -282.467333,180.210019 C-282.327513,179.64967 -282.046805,179.229142 -281.766097,178.807546 C-282.187693,173.481563 -285.691741,174.743149 -288.493486,174.323687 C-292.138422,172.921214 -294.520705,168.15558 -295.36283,165.913117 C-302.228972,164.09225 -300.967386,163.951362 -300.967386,158.066098 C-300.407037,156.524871 -299.846688,155.121331 -299.285272,153.720992 C-299.987576,149.515707 -303.490557,147.413064 -305.453379,145.733085 C-307.415134,144.752208 -309.237069,143.769195 -311.059003,142.788318 C-311.339711,142.367789 -311.619352,142.088149 -311.759172,141.807441 C-311.759172,134.800411 -312.179701,136.342705 -306.854785,133.678646 C-306.153549,133.259184 -305.453379,132.838656 -304.752143,132.41706 C-304.752143,127.370718 -303.631445,120.505643 -305.453379,116.861774 C-307.695842,115.319481 -310.638475,115.740009 -311.90006,116.300358 C-312.60023,118.823529 -314.98358,116.720887 -315.263221,116.300358 C-315.82357,113.778254 -316.104278,111.675612 -315.964458,109.574036 C-314.842693,109.01262 -313.720927,108.592092 -312.459342,108.171563 C-312.459342,105.367684 -314.282344,105.088043 -314.842693,104.106098 C-314.842693,99.9029479 -314.842693,101.582927 -311.059003,99.7620602 C-309.517777,98.2208339 -308.67672,96.3978321 -307.695842,94.7178527 C-306.574077,94.0155487 -305.453379,93.3143121 -304.191794,92.7539632 C-303.209849,92.3334346 -302.228972,92.0548612 -301.248094,91.7730857 C-299.145452,91.7730857 -289.756139,91.7730857 -286.952259,88.9713412 C-283.589099,88.9713412 -282.748042,87.008519 -282.046805,91.9139735 C-280.785219,94.9964261 -280.505579,96.1181913 -275.600124,95.5578424 C-273.779257,93.7369752 -272.236963,90.6534552 -270.415029,89.250982 C-268.312386,89.250982 -266.349564,89.9522186 -263.407999,89.250982 C-261.865705,86.1674619 -259.202714,86.3083497 -255.838486,86.0276416 C-254.016551,86.5869231 -252.194617,87.2892271 -250.232862,87.9904637 C-249.391805,86.7278109 -240.842482,86.3083497 -237.338433,85.3264049 C-235.656319,84.3455275 -233.975272,83.3646501 -232.153338,82.5225257 C-231.17246,78.599016 -231.031573,78.1795548 -227.808232,76.0769122 C-226.827355,73.5548084 -225.70559,71.0316373 -224.584892,68.6482866 C-223.183486,67.8082969 -221.78208,66.9683072 -220.380674,66.2660033 C-219.820325,64.7247769 -219.258909,63.1824832 -218.69856,61.7810773 C-218.558739,59.6795021 -218.417852,57.5768595 -218.278031,55.6151046 C-218.69856,54.4933395 -218.979268,53.3715743 -219.258909,52.3906969 L-219.258909,49.1673565 C-218.278031,47.3464893 -218.278031,44.5426101 -218.278031,42.860496 C-220.380674,40.7578535 -219.539617,40.0576842 -219.679437,38.7950313 C-218.979268,38.0959293 -210.850473,38.5153905 -208.047661,38.5153905 C-204.823253,38.935919 -201.880621,40.0576842 -197.676403,40.4771453 C-196.13411,41.1794493 -194.451996,41.8796186 -192.769882,42.5808553 C-192.35042,42.019439 -191.928825,41.5989105 -191.509363,41.1794493 C-191.789004,40.6180331 -192.069712,40.1975046 -192.35042,39.7759087 L-192.35042,35.1511624 C-190.947947,32.2085301 -188.284956,29.4046508 -186.323201,27.0234348 C-185.623031,22.5395762 -184.080738,21.6974518 -181.557567,18.6139318 C-180.01634,14.8302425 -180.295981,14.9689955 -175.951943,14.9689955 C-173.8493,15.9520076 -170.206499,19.1742807 -166.842271,20.2960459 C-165.160157,20.2960459 -162.638053,20.1551581 -160.53541,22.2578007 C-157.732598,22.2578007 -152.827144,22.5395762 -151.705379,19.0344603 L-151.705379,15.6702322 C-153.107852,8.52338206 -151.846266,9.08373097 -148.341151,4.45898462 C-144.838169,2.77687055 -141.89447,2.35740937 -137.129903,1.93688085 C-136.709374,1.6551054 -136.288846,1.51635234 -135.868317,1.37653194 C-135.447789,0.113879059 -135.02726,-1.14663916 -134.466911,-2.40822471 C-133.626922,-3.24928174 -132.785865,-4.09140611 -131.944808,-4.93246314 C-129.561457,-5.07228354 -127.179174,-5.07228354 -124.656003,-5.07228354 C-123.255664,-3.95158571 -122.834068,-2.12858392 -122.55336,0.815115697 C-121.853191,3.19739907 -119.050379,6.84126799 -117.088624,10.4851369 C-115.686151,12.5867122 -112.042282,13.0072407 -108.679121,14.1290058 C-106.998074,15.3905914 -105.314893,16.6511096 -103.633846,17.9137625 C-103.07243,18.8946399 -102.512081,20.0153377 -101.951732,21.1360356 C-101.811912,23.3795659 -101.531203,25.6220289 -101.250495,28.0043122 C-101.110675,28.0043122 -100.970855,28.0043122 -100.831034,28.1452 C-100.130865,29.6864263 -99.2887404,31.3685404 -98.4476834,33.0485198 C-98.1680426,35.5716909 -97.3269856,41.0385616 -98.7283915,44.8222509 C-100.550326,46.2247242 -102.37226,47.7659505 -104.053307,49.3082442 C-104.194195,50.1482339 -104.334015,50.9903583 -104.334015,51.830348 C-104.334015,52.2508765 -104.194195,55.0547557 -102.792789,57.156331 C-101.250495,58.2759614 -99.709269,59.3977266 -98.0282222,60.5194918 C-96.3461082,60.7980652 -94.6639941,61.0798407 -92.8420596,61.5003692 C-91.1599456,62.3414262 -89.3380111,63.1824832 -87.5160766,64.0235403 C-84.0120281,64.3042484 -80.3681592,64.7247769 -76.7242903,65.1453054 C-75.8843006,65.7056543 -75.0432435,66.2660033 -74.0623661,66.9683072 C-69.7172605,71.7318066 -65.9325039,75.9360245 -58.9244068,78.0386671 C-57.9435294,79.0195445 -56.8228316,80.0004219 -55.7021338,81.1211197 C-55.1407175,83.3646501 -54.5803686,85.607113 -53.8801993,87.9904637 C-52.7584341,91.0739838 -48.6940367,92.1946816 -50.0954426,97.8003054 C-49.6749141,98.6402951 -49.394206,100.60205 -47.0119226,102.144344 C-41.9666478,102.704692 -37.0611933,103.125221 -31.1748614,105.367684 C-27.8106332,106.068921 -24.4474724,106.90891 -20.9444912,107.751035 C-13.2351576,107.751035 -5.52689119,107.751035 2.18030784,107.890855 C4.28295043,108.592092 8.76894372,109.152441 11.5717556,110.554914 C13.8131513,112.375781 16.0566816,114.338603 18.4389649,116.300358 C19.280022,116.720887 20.121079,117.140348 20.9610687,117.560876 C23.204599,117.842652 25.5868824,118.262113 27.9691658,118.682641 C28.9500432,119.383878 29.931988,120.08298 31.0526858,120.784217 C33.9963854,121.625274 36.9379503,122.608286 39.8827173,123.588096 C41.7046518,124.429153 45.4883411,130.736013 48.5718611,125.970379 C49.5527385,125.269143 50.5346833,124.568973 51.5155607,124.008624 C53.617136,123.307388 55.8595989,121.905982 57.6815334,120.364756 C59.6443556,119.663519 61.6071778,118.96335 63.708753,118.262113 C66.3717445,116.300358 70.7157828,115.740009 73.5185946,113.637367 C74.2198313,113.217905 74.9200006,112.93613 75.7610576,112.656489 C79.6856347,109.993498 85.0116177,111.535791 90.7581292,112.656489 L96.9241019,112.656489 C98.1856874,111.394904 101.12832,111.115263 103.091142,110.554914 C104.212907,109.85261 105.333605,109.152441 106.59519,108.592092 C109.67871,105.226796 111.780286,100.883825 115.985571,98.7811828 C117.247156,97.660485 120.469429,93.8757283 122.010656,93.8757283 L122.010656,93.4551998 C123.272241,92.6152101 124.533827,91.7730857 125.935233,91.0739838 C125.935233,90.3716798 125.935233,89.6704431 126.076121,89.1122289 C125.374884,88.5508127 124.674715,87.9904637 123.973478,87.5688679 C119.348732,82.2428849 120.329609,79.3002526 121.591195,73.6924942 C122.572072,71.7318066 123.973478,70.6100415 124.674715,69.3495233 C125.094176,69.0677478 125.515772,68.7891744 125.935233,68.5095336 C127.058065,68.6482866 128.319651,68.9300621 129.580169,69.2086355 C132.663689,72.2921556 136.727019,75.2347878 142.332643,72.8525045 C143.874937,70.8907496 144.996702,69.0677478 146.537928,68.3686458 C146.537928,66.2660033 150.743213,63.0415955 152.425327,61.6401896 C154.387082,61.6401896 156.348837,61.7810773 158.45148,61.9198304 C158.732188,61.5003692 159.011829,61.0798407 159.292537,60.7980652 C162.515877,59.8171878 164.757273,58.4168492 167.420264,55.7538577 C168.401142,50.8494705 169.242199,47.9047036 173.868012,46.0838365 C175.410306,45.6643753 176.951532,45.3825998 178.632579,45.102959 C179.333816,44.2629693 180.174873,43.420845 181.01593,42.7206757 C183.958562,40.7578535 185.07926,39.7759087 188.303668,38.5153905 C192.648773,38.6541435 196.992812,38.935919 201.337917,39.2155598 C201.898266,38.935919 202.598435,38.6541435 203.300739,38.3755701 C205.402315,35.2920501 203.7202,32.9097667 202.458615,31.2276526 C199.235275,28.8443019 196.011934,26.4620186 192.788594,24.2195556 C190.405243,20.576754 189.984714,19.5948092 186.621554,20.0153377 C186.061205,20.7165744 185.500856,21.5586987 184.93944,22.3986884 C183.538034,22.2578007 182.136628,22.2578007 180.876109,22.2578007 C180.735222,23.3795659 180.735222,24.501331 180.735222,25.7607819 C179.333816,30.1058875 171.485729,25.7607819 170.363964,25.2025677 C166.859915,25.2025677 164.757273,26.0425574 163.076226,28.4237734 C161.954461,28.4237734 160.833763,28.4237734 159.713065,28.5646611 C155.088319,27.0234348 155.648668,23.5204536 155.648668,21.2769233 C156.910253,20.0153377 158.310592,19.1742807 159.432357,17.631987 C159.432357,14.2698936 159.432357,12.5867122 159.852886,10.2054961 C160.554122,8.38249434 161.394112,6.70038027 162.235169,5.02040086 C162.235169,0.254766785 162.095349,-1.28752689 164.196924,-4.3710469 C165.739218,-4.51193462 167.280444,-4.65175502 168.822738,-4.65175502 C172.747315,-4.09140611 179.193995,-2.82982056 182.837864,-7.59545464 C183.958562,-8.43544434 185.07926,-9.2775687 186.341913,-10.1175584 C187.042082,-10.9575481 187.742251,-11.7996725 188.443488,-12.6396622 C188.443488,-17.2644085 188.583309,-21.4696937 189.284545,-24.9737422 C190.545063,-28.0572622 192.929481,-30.579366 193.770538,-33.2423575 C193.770538,-36.3258775 194.330887,-38.0079916 196.151754,-39.8288587 C196.011934,-41.231332 196.011934,-42.6327379 196.011934,-43.8932561 C194.751416,-45.2957294 193.629651,-46.696068 192.507886,-48.0985413 C190.825772,-48.5190698 190.545063,-48.799778 189.844894,-49.4988799 C189.844894,-55.3862792 191.10648,-56.648932 196.011934,-58.8892604 C199.376162,-58.8892604 202.598435,-61.9727804 206.6639,-62.5331293 C208.766543,-63.9345352 210.867051,-65.3370085 213.110581,-66.5975267 C214.231279,-67.1578756 215.492864,-67.5784042 216.75445,-68 L222.220253,-68 C223.201131,-67.7192919 226.425538,-67.0180552 228.106585,-65.3370085 C231.610634,-65.3370085 234.413446,-66.1769982 238.899439,-65.8984247 C240.161024,-65.1971881 241.561363,-64.4948841 242.963836,-63.7957822 C245.766648,-60.9919029 249.269629,-57.6298095 252.072441,-52.5823999 C254.035263,-51.3229491 257.398424,-46.696068 257.958773,-42.6327379 C260.202303,-40.8097361 262.865295,-38.5683405 265.807927,-35.0632246 C267.069513,-32.5411209 264.12688,-30.9988272 268.610739,-28.7584989 C269.591617,-27.6367337 270.713382,-26.5149686 271.83408,-25.3932034 C271.83408,-24.1326852 271.83408,-22.7291446 272.675137,-20.4888163 C275.05742,-20.3479285 277.160063,-20.2070408 279.401458,-20.7684571 L284.16816,-20.7684571 C285.429745,-19.9274 286.129914,-19.3670511 288.652018,-18.9465226 L288.652018,-19.5079388 C289.914671,-20.0682877 291.31501,-20.0682877 293.557473,-20.0682877 C294.539417,-18.9465226 296.220464,-17.1235208 298.883456,-15.1628333 C306.171194,-15.1628333 306.873497,-12.220201 309.114893,-4.09140611 C310.376479,-2.68893283 311.636997,-1.14663916 312.898582,0.395654512 C313.320178,0.395654512 313.739639,0.395654512 314.160168,0.533340244 C316.823159,-0.446469853 324.110897,-1.7080554 326.354428,-3.95158571 C328.876531,-8.01491582 330.558645,-10.3971992 334.342335,-12.7805499 C336.584798,-16.1437107 340.649195,-18.9465226 343.311119,-21.6105814 C344.152176,-21.6105814 345.133054,-22.8700323 345.413762,-23.1518078 C346.535527,-23.1518078 348.217641,-23.1518078 350.460104,-22.1709303 C350.880633,-21.1879182 350.460104,-18.3861737 350.039576,-16.5631719 C350.039576,-15.1628333 350.039576,-13.7614273 350.180463,-12.220201 C351.442049,-10.9575481 353.543624,-9.41632177 354.243793,-6.33280176 C354.103973,-4.09140611 353.964153,-1.7080554 353.823265,0.674227971 C353.262916,1.79599313 352.842388,2.91775828 352.421859,4.1782765 C351.020453,5.58074978 351.161341,7.82214542 351.86151,10.6260246 C351.72169,13.9881181 351.72169,17.3523462 351.72169,20.8574621 C351.301161,22.9590374 350.880633,25.2025677 350.460104,27.442896 C350.460104,28.8443019 350.599925,30.3855283 350.739745,31.9288893 C350.039576,32.6290586 349.479227,33.3302952 348.918878,34.1702849 C346.113931,35.9932867 341.630073,35.0124093 340.088846,34.3111726 C339.107969,34.1702849 338.126024,34.1702849 337.145147,34.1702849 C336.724618,34.8715216 336.30409,35.5716909 336.024449,36.4138152 C332.38058,40.0576842 328.036542,39.2155598 333.921806,45.9429487 C334.342335,49.1673565 336.30409,53.9329905 338.546553,58.1372084 C338.827261,60.0989632 338.967081,62.4812466 340.508307,65.5647666 C340.508307,66.9683072 341.349365,72.1512678 339.247789,73.5548084 C338.686373,74.6755063 338.266912,75.7951368 337.845316,76.9169019 C337.566743,78.4581283 337.286034,80.1402423 337.005326,81.8234237 C336.584798,81.9621768 336.164269,82.2428849 335.743741,82.5225257 C333.781986,82.5225257 333.501278,82.2428849 332.5204,81.1211197 C330.839354,81.9621768 329.577768,81.4007605 328.736711,81.1211197 C328.595823,79.0195445 328.456003,76.9169019 328.456003,74.8142593 C326.214607,70.3304007 324.391605,78.3172405 324.110897,79.7207811 C322.008255,82.8043011 320.88649,86.4481701 318.224565,89.1122289 C316.12299,90.2318594 313.599819,90.3716798 311.636997,90.5125675 C311.357356,91.2127368 311.076648,91.6343327 311.076648,93.3143121 C311.217536,93.5960875 311.357356,93.8757283 311.636997,94.1564364 C313.179291,94.8566057 314.861405,95.6987301 314.439809,99.2017113 C313.320178,100.60205 312.058593,101.864703 310.517366,102.284164 C307.993128,102.144344 305.611912,102.144344 303.228561,102.144344 C300.986098,101.304354 298.462927,98.7811828 296.920633,100.323476 C295.098699,102.704692 294.117822,106.630337 292.857303,109.993498 C291.876426,111.256151 291.035369,112.656489 290.194312,114.057895 C289.213434,115.038773 288.232557,116.01965 287.25168,117.000527 C285.149037,118.262113 281.785876,119.944227 280.944819,121.765094 C278.981997,123.027747 276.598646,126.111267 274.9176,127.932134 C274.776712,129.614248 274.636891,131.296362 274.636891,132.977409 C272.814957,133.819533 270.993022,134.659523 269.171088,135.50058 C261.74353,137.043941 259.080538,139.144449 254.314904,144.470432 C253.613668,145.451309 253.054386,146.573075 252.49297,147.693772 C252.213329,149.935168 251.51316,152.318519 250.391394,154.563116 C248.42964,155.823635 241.702251,156.524871 240.720306,155.543994 C240.720306,151.338709 242.822949,151.056933 245.205232,148.255189 C245.48594,147.553952 245.766648,146.851648 246.046289,146.293434 C241.842071,144.190791 242.122779,141.948328 243.103657,138.585167 C244.644883,136.483592 246.186109,134.519703 247.728403,132.557948 C247.868223,130.736013 248.008044,128.913012 248.148932,127.233032 C246.326997,124.707726 243.664006,122.608286 242.822949,122.185623 C241.281722,122.467398 239.739429,122.745972 238.198202,123.027747 C236.23538,124.288265 233.853097,127.511606 232.591511,129.053899 C231.189038,131.015654 229.22835,135.080052 227.125708,137.182694 C223.06131,139.566045 221.520084,143.069026 218.576384,146.992536 C218.296743,147.693772 218.155856,148.393942 218.017103,149.095178 C217.176046,149.796415 216.333921,150.495517 215.633752,151.338709 C213.950571,152.179766 212.409344,153.019755 210.867051,154.002768 C206.523012,155.121331 203.58038,155.403106 199.936511,157.505749 C198.254397,161.00873 200.497927,163.951362 202.458615,167.877007 C203.439492,168.15558 204.000909,170.818572 204.280549,173.062102 C204.42037,173.201922 204.561257,173.481563 204.701078,173.762271 L206.103551,173.762271 C207.644778,169.697874 207.083361,170.818572 212.269524,170.818572 C212.829873,170.258223 213.81075,170.39911 215.492864,170.39911 C215.633752,171.379988 216.614629,172.081224 217.736395,174.042979 L217.736395,179.790558 C218.857092,181.190897 222.641849,183.011764 225.864122,183.57318 C226.985887,181.470538 228.106585,179.367895 229.22835,177.26632 C233.713276,172.640506 234.694154,169.697874 242.40242,171.2391 C244.083467,171.940337 245.766648,172.640506 247.447695,173.341743 C251.651913,173.201922 255.997018,173.062102 260.342124,173.062102 C260.902473,173.341743 261.463889,173.762271 262.164058,174.1828 C261.88335,175.023857 261.603709,175.864914 261.463889,176.845791 C261.463889,178.248264 262.024238,180.48966 259.921595,182.030886 C258.520189,182.030886 257.117716,182.030886 255.71631,182.171774 C254.314904,182.873011 252.913498,183.57318 251.51316,184.274417 C248.988921,186.377059 244.364175,188.758275 243.524185,192.261257 C242.54224,193.242134 241.001014,193.80355 240.161024,194.225146 C238.758551,195.626552 236.795729,196.186901 235.675031,196.607429 C235.394323,198.149723 235.254503,199.690949 235.113615,201.373064 C233.713276,203.334818 231.189038,205.717102 230.20816,207.678857 C230.069407,209.220083 229.92852,210.761309 229.788699,212.443423 C229.22835,213.286615 228.666934,214.126605 228.106585,215.107482 C227.966765,215.947472 227.966765,216.789596 227.966765,217.629586 C228.527114,218.189935 231.469746,220.293645 234.413446,221.274522 C234.973794,221.975759 237.637853,224.358042 240.300845,224.918391 C242.40242,226.31873 245.48594,233.187006 247.307874,236.830875 C248.708213,238.933518 250.110686,241.036161 251.51316,243.277556 C251.51316,245.661974 252.773678,250.985823 256.838075,251.546171 C259.921595,253.369173 263.005115,255.330928 266.088635,257.292683 C266.508097,258.27356 266.648984,258.833909 266.648984,260.516023 C265.948815,260.936552 265.388466,261.35708 264.82705,261.917429 C262.865295,261.777609 260.902473,261.637789 258.939651,261.637789 C258.939651,261.777609 259.080538,262.058317 259.220359,262.339025 C260.483012,262.618666 263.846172,262.477778 263.846172,265.844141 C263.565464,266.263602 263.285823,266.825018 263.144936,267.385367 C264.686162,268.084469 266.648984,268.645886 269.032335,270.60764 C268.891447,271.728338 268.891447,272.850103 268.891447,274.110622 C268.05039,274.952746 267.349154,275.792736 266.648984,276.63486 C262.164058,278.455727 260.061416,282.099596 255.857198,285.043296 C254.735433,285.324004 253.754555,285.603645 252.773678,286.024173 C252.63279,286.305949 252.63279,286.584522 252.63279,287.005051 C253.194206,287.5654 254.314904,288.828052 256.557367,288.266636 C259.501067,286.165061 259.080538,285.183116 263.425644,285.183116 C266.648984,287.426646 269.310908,287.706287 274.357251,287.988063 C276.179185,289.80893 270.432674,293.593686 269.032335,294.433676 C268.470919,294.994025 267.209333,295.273666 267.769682,296.395431 C268.470919,296.256678 269.171088,296.256678 269.872325,296.256678 C270.292853,295.555441 270.853202,294.853137 271.413551,294.292788 C271.83408,294.292788 272.395496,294.292788 272.954777,294.433676 C273.516194,295.555441 273.936722,296.395431 273.936722,299.19931 C273.516194,299.618771 273.095665,300.180188 272.675137,300.740537 C271.554439,301.020177 268.190211,301.020177 268.190211,302.702291 C269.032335,303.121753 270.012145,303.683169 270.993022,304.243518 C270.853202,306.766689 270.713382,309.28986 270.573561,311.811964 C270.853202,312.372313 271.132843,312.933729 271.554439,313.634966 C271.413551,315.036371 271.273731,318.118824 269.591617,319.52023 L266.929692,319.52023 C266.648984,318.958814 266.368276,318.4006 266.228456,317.977936 C259.921595,324.006223 260.061416,324.285864 259.781775,333.395537 C259.501067,334.79801 256.697188,337.461001 255.435602,338.721519 C255.295782,340.262746 255.155961,341.945927 255.016141,343.628041 C252.072441,345.589796 250.110686,343.628041 247.588583,344.887492 C248.288752,345.448908 248.988921,346.009257 249.829978,346.710494 C249.970866,346.990135 250.110686,347.410663 250.391394,347.830124 C251.372272,348.252788 252.49297,348.672249 253.613668,349.092777 L253.613668,350.214543 C250.810856,352.036477 250.531215,351.33524 250.531215,354.980177 C249.550337,356.240695 249.550337,357.221572 249.550337,359.884564 C249.970866,361.147217 251.51316,361.28597 251.51316,364.229669 C249.690158,364.229669 248.008044,364.229669 246.326997,364.368422 C246.466817,364.929839 246.466817,365.771963 247.307874,366.191424 L247.307874,367.172302 C245.906469,368.153179 244.505063,369.134056 243.243477,370.114934 C243.243477,371.65616 242.54224,374.180399 241.001014,376.141086 C240.300845,376.702502 239.599608,377.262851 238.899439,377.965155 C237.357145,377.965155 235.814851,378.104976 234.413446,378.243729 C234.413446,379.085853 235.113615,379.506382 235.814851,379.925843 L235.814851,381.748845 C235.113615,382.449014 233.29168,382.729722 233.29168,382.729722 C230.488868,384.550589 228.527114,386.794119 226.425538,389.595864 C226.285718,390.297101 226.14483,390.998337 226.00501,391.698507 C222.641849,395.062735 220.398319,395.762904 216.333921,396.743781 C214.932515,397.865547 213.530042,398.987312 212.269524,400.248897 L212.269524,400.949067 C212.688985,401.370663 213.530042,403.19153 212.409344,404.873644 C211.007938,405.43506 209.74742,405.995409 208.485835,406.695578 C204.561257,409.49839 200.777568,410.758908 197.554228,413.983316 C194.610528,413.983316 193.910359,412.58191 192.929481,412.58191 C192.366998,413.281012 191.806649,413.983316 191.247367,414.684553 L188.02296,414.684553 C187.462611,414.123136 186.901194,413.703675 186.341913,413.281012 C186.341913,413.842428 186.341913,416.084891 184.93944,416.924881 C181.716099,417.627185 182.837864,417.065769 181.856987,419.590007 C180.314693,421.131233 176.951532,419.590007 176.670824,419.310366 C176.391184,418.74895 176.251363,418.187534 176.110475,417.627185 C175.829767,417.487365 175.550127,417.487365 175.410306,417.487365 C174.007833,416.364532 172.607494,415.244902 171.345909,414.123136 C170.92538,415.104014 170.644672,416.225779 170.363964,417.347544 C168.962558,419.449119 167.840793,421.131233 165.879038,423.092988 C163.216046,424.073866 163.076226,425.615092 161.113404,427.018633 C158.310592,427.018633 157.329715,428.559859 155.929376,429.820377 C153.405138,429.820377 151.724091,429.681624 150.743213,430.380726 C149.341807,433.323358 146.677749,433.184605 144.576173,431.642312 C140.371955,432.623189 137.428256,434.584944 133.785454,435.706709 C128.038943,435.98635 127.197886,435.847597 126.076121,441.3134 C124.954355,442.435165 123.272241,442.294278 122.71296,443.556931 C124.254186,445.377798 125.795412,447.339553 127.477527,449.30024 L127.477527,452.245007 C125.235064,454.065874 122.851713,454.206762 120.610317,454.34765 Z M270.152392,417.206763 C268.611166,414.963233 267.068872,412.861658 265.668534,410.759015 C261.883777,409.498497 262.304306,407.536742 261.324496,405.57392 C260.622192,404.593042 259.922022,403.612165 259.220786,402.772175 C259.220786,398.56689 260.622192,394.361605 259.922022,391.55986 C259.922022,386.09299 260.061843,385.813349 263.145363,382.310368 C263.425003,380.628254 263.846599,378.945072 264.26606,377.262958 C265.107118,375.02263 266.087995,372.778032 267.068872,370.67539 C270.152392,366.612059 271.693619,365.069766 275.478375,362.265887 C277.30031,362.265887 279.121177,362.265887 281.083999,362.406774 C281.224887,362.547662 281.505595,362.827303 281.785236,363.108011 C282.346652,365.349407 283.187709,367.031521 282.907001,370.115041 C279.962234,374.179438 281.925056,381.327355 281.645415,387.354575 C281.083999,388.615093 280.664538,390.017567 280.242942,391.418973 C278.421008,395.202662 276.599073,398.987419 274.777139,402.911996 C274.21679,406.976393 273.796261,411.04079 273.3768,415.245008 C272.955204,415.665537 272.534676,416.084998 272.115215,416.646414 C271.413978,416.786235 270.712741,416.924988 270.152392,417.206763 Z" fill="#164A87" sketch:type="MSShapeGroup" mask="url(#mask-2)"></path>
                </g>
                <circle id="Oval-13" fill="#FFFFFF" sketch:type="MSShapeGroup" cx="160" cy="143" r="5"></circle>
                <circle id="Oval-13" fill="#FFFFFF" sketch:type="MSShapeGroup" cx="188" cy="257" r="5"></circle>
                <circle id="Oval-13" fill="#FFFFFF" sketch:type="MSShapeGroup" cx="255" cy="301" r="5"></circle>
                <circle id="Oval-13" fill="#FFFFFF" sketch:type="MSShapeGroup" cx="32" cy="293" r="5"></circle>
                <circle id="Oval-13" fill="#FFFFFF" sketch:type="MSShapeGroup" cx="153" cy="421" r="5"></circle>
                <polygon id="Star-1" fill="#FF6900" sketch:type="MSShapeGroup" points="256 273.5 249.534362 276.899187 250.769189 269.699593 245.538378 264.600813 252.767181 263.550407 256 257 259.232819 263.550407 266.461622 264.600813 261.230811 269.699593 262.465638 276.899187 "></polygon>
                <text id="北京分部" sketch:type="MSTextLayer" font-family="PingFang SC" font-size="14" font-weight="526" fill="#FFFFFF">
                    <tspan x="93" y="150">北京分部</tspan>
                </text>
                <text id="重庆分部" sketch:type="MSTextLayer" font-family="PingFang SC" font-size="14" font-weight="526" fill="#FFFFFF">
                    <tspan x="44" y="298">重庆分部</tspan>
                </text>
                <text id="广州分部" sketch:type="MSTextLayer" font-family="PingFang SC" font-size="14" font-weight="526" fill="#FFFFFF">
                    <tspan x="106" y="393">广州分部</tspan>
                </text>
                <text id="安徽子公司" sketch:type="MSTextLayer" font-family="PingFang SC" font-size="12" font-weight="526" sketch:alignment="right" line-spacing="20" fill="#FFFFFF">
                    <tspan x="118" y="262">安徽子公司</tspan>
                </text>
                <text id="上海总部" sketch:type="MSTextLayer" font-family="PingFang SC" font-size="18" font-weight="526" fill="#FF6900">
                    <tspan x="281" y="263">上海总部</tspan>
                </text>
                <text id="杭州分部" sketch:type="MSTextLayer" font-family="PingFang SC" font-size="14" font-weight="526" fill="#FFFFFF">
                    <tspan x="189" y="307">杭州分部</tspan>
                </text>
                <text id="Shanghai" sketch:type="MSTextLayer" font-family="Myriad Pro" font-size="18" font-weight="normal" fill="#FF6900">
                    <tspan x="318" y="283">Shanghai</tspan>
                </text>
                <text id="Hangzhou" sketch:type="MSTextLayer" font-family="Myriad Pro" font-size="12" font-weight="normal" fill="#FFFFFF">
                    <tspan x="193" y="321">Hangzhou</tspan>
                </text>
                <text id="Beijing" sketch:type="MSTextLayer" font-family="Myriad Pro" font-size="14" font-weight="normal" fill="#FFFFFF">
                    <tspan x="108" y="164">Beijing</tspan>
                </text>
                <text id="Chongqing" sketch:type="MSTextLayer" font-family="Myriad Pro" font-size="14" font-weight="normal" fill="#FFFFFF">
                    <tspan x="44" y="314">Chongqing</tspan>
                </text>
                <text id="Guangzhou" sketch:type="MSTextLayer" font-family="Myriad Pro" font-size="14" font-weight="normal" fill="#FFFFFF">
                    <tspan x="93" y="409">Guangzhou</tspan>
                </text>
                <text id="Anhui" sketch:type="MSTextLayer" font-family="Myriad Pro" font-size="14" font-weight="normal" fill="#FFFFFF">
                    <tspan x="142" y="277">Anhui</tspan>
                </text>
                <text id="Wondertek-Branch-Off" sketch:type="MSTextLayer" font-family="Myriad Pro" font-size="20" font-weight="normal" fill="#FFFFFF">
                    <tspan x="318" y="422">Wondertek Branch Offices</tspan>
                </text>
            </g>
        </g>
    </g>
</svg>