<?xml version="1.0" encoding="UTF-8" standalone="no"?>
<svg width="118px" height="118px" viewBox="0 0 118 118" version="1.1" xmlns="http://www.w3.org/2000/svg" xmlns:xlink="http://www.w3.org/1999/xlink" xmlns:sketch="http://www.bohemiancoding.com/sketch/ns">
    <!-- Generator: Sketch 3.5.1 (25234) - http://www.bohemiancoding.com/sketch -->
    <title>OMS-s</title>
    <desc>Created with Sketch.</desc>
    <defs></defs>
    <g id="首页" stroke="none" stroke-width="1" fill="none" fill-rule="evenodd" sketch:type="MSPage">
        <g id="OMS-s" sketch:type="MSLayerGroup">
            <rect id="area" fill="#FFFFFF" sketch:type="MSShapeGroup" x="0" y="0" width="118" height="118"></rect>
            <path d="M59,114 L59,114 C62.0847226,114 66.125911,108.957628 69.3538721,99.435143 C72.9300386,88.8854519 75,74.4483334 75,59 C75,43.5516666 72.9300386,29.1145481 69.3538721,18.564857 C66.125911,9.04237173 62.0847226,4 59,4 C55.9152774,4 51.874089,9.04237173 48.6461279,18.564857 C45.0699614,29.1145481 43,43.5516666 43,59 C43,74.4483334 45.0699614,88.8854519 48.6461279,99.435143 C51.874089,108.957628 55.9152774,114 59,114 L59,114 Z M59,118 L59,118 C47.954305,118 39,91.5848002 39,59 C39,26.4151998 47.954305,0 59,0 C70.045695,0 79,26.4151998 79,59 C79,91.5848002 70.045695,118 59,118 L59,118 Z" id="Shape" fill="#008BED" sketch:type="MSShapeGroup"></path>
            <path d="M106.631397,86.5 L106.631397,86.5 C108.173759,83.8285519 105.827531,77.8075942 99.1947971,70.2508552 C91.8465798,61.8789586 80.3786492,52.8677602 67,45.1435935 C53.6213508,37.4194268 40.0834588,31.9935068 29.159075,29.8157122 C19.2983803,27.8499659 12.9109641,28.8285519 11.3686028,31.5 C9.82624149,34.1714481 12.1724693,40.1924058 18.8052029,47.7491448 C26.1534202,56.1210414 37.6213508,65.1322398 51,72.8564065 C64.3786492,80.5805732 77.9165412,86.0064932 88.840925,88.1842878 C98.7016197,90.1500341 105.089036,89.1714481 106.631397,86.5 L106.631397,86.5 Z M110.095499,88.5 L110.095499,88.5 C104.572651,98.0658525 77.2192648,92.6129082 49,76.3205081 C20.7807352,60.028108 2.38165368,39.0658525 7.90450118,29.5 C13.4273487,19.9341475 40.7807352,25.3870918 69,41.6794919 C97.2192648,57.971892 115.618346,78.9341475 110.095499,88.5 L110.095499,88.5 Z" id="Shape" fill="#008BED" sketch:type="MSShapeGroup"></path>
            <path d="M106.631397,31.5 L106.631397,31.5 C105.089036,28.8285519 98.7016197,27.8499659 88.840925,29.8157122 C77.9165412,31.9935068 64.3786492,37.4194268 51,45.1435935 C37.6213508,52.8677602 26.1534202,61.8789586 18.8052029,70.2508552 C12.1724693,77.8075942 9.82624149,83.8285519 11.3686028,86.5 C12.9109641,89.1714481 19.2983803,90.1500341 29.159075,88.1842878 C40.0834588,86.0064932 53.6213508,80.5805732 67,72.8564065 C80.3786492,65.1322398 91.8465798,56.1210414 99.1947971,47.7491448 C105.827531,40.1924058 108.173759,34.1714481 106.631397,31.5 L106.631397,31.5 Z M110.095499,29.5 L110.095499,29.5 C115.618346,39.0658525 97.2192648,60.028108 69,76.3205081 C40.7807352,92.6129082 13.4273487,98.0658525 7.90450118,88.5 C2.38165368,78.9341475 20.7807352,57.971892 49,41.6794919 C77.2192648,25.3870918 104.572651,19.9341475 110.095499,29.5 L110.095499,29.5 Z" id="Shape" fill="#008BED" sketch:type="MSShapeGroup"></path>
            <circle id="Oval-39" fill="#FFFFFF" sketch:type="MSShapeGroup" cx="89" cy="27" r="8"></circle>
            <circle id="Oval-39" fill="#FFFFFF" sketch:type="MSShapeGroup" cx="45" cy="101" r="8"></circle>
            <circle id="Oval-39" fill="#FFFFFF" sketch:type="MSShapeGroup" cx="15" cy="45" r="8"></circle>
            <circle id="Oval-39" fill="#008BED" sketch:type="MSShapeGroup" cx="89" cy="27" r="4"></circle>
            <circle id="Oval-39" fill="#008BED" sketch:type="MSShapeGroup" cx="45" cy="101" r="4"></circle>
            <circle id="Oval-39" fill="#008BED" sketch:type="MSShapeGroup" cx="15" cy="45" r="4"></circle>
        </g>
    </g>
</svg>