<?xml version="1.0" encoding="UTF-8" standalone="no"?>
<svg width="50px" height="50px" viewBox="0 0 50 50" version="1.1" xmlns="http://www.w3.org/2000/svg" xmlns:xlink="http://www.w3.org/1999/xlink" xmlns:sketch="http://www.bohemiancoding.com/sketch/ns">
    <!-- Generator: Sketch 3.5.1 (25234) - http://www.bohemiancoding.com/sketch -->
    <title>bokong-s</title>
    <desc>Created with Sketch.</desc>
    <defs></defs>
    <g id="解决方案" stroke="none" stroke-width="1" fill="none" fill-rule="evenodd" sketch:type="MSPage">
        <g id="bokong-s" sketch:type="MSLayerGroup" fill="#57D3B2">
            <path d="M25,49 L25,49 C38.254834,49 49,38.254834 49,25 C49,11.745166 38.254834,1 25,1 C11.745166,1 1,11.745166 1,25 C1,38.254834 11.745166,49 25,49 L25,49 Z M25,50 L25,50 C11.1928813,50 0,38.8071187 0,25 C0,11.1928813 11.1928813,0 25,0 C38.8071187,0 50,11.1928813 50,25 C50,38.8071187 38.8071187,50 25,50 L25,50 Z" id="Shape" sketch:type="MSShapeGroup"></path>
            <g id="icon" transform="translate(13.166667, 11.291667)" sketch:type="MSShapeGroup">
                <path d="M6.96295194,21.5740961 C3.33094791,19.7776744 0.833333333,16.0346784 0.833333333,11.7083333 C0.833333333,5.63320109 5.75820109,0.708333333 11.8333333,0.708333333 C17.9084656,0.708333333 22.8333333,5.63320109 22.8333333,11.7083333 C22.8333333,16.0346784 20.3357188,19.7776744 16.7037147,21.5740961 L16.2563969,20.6794605 C19.5606858,19.0472274 21.8333333,15.643183 21.8333333,11.7083333 C21.8333333,6.18548584 17.3561808,1.70833333 11.8333333,1.70833333 C6.31048584,1.70833333 1.83333333,6.18548584 1.83333333,11.7083333 C1.83333333,15.643183 4.10598083,19.0472274 7.41026974,20.6794605 L6.96295194,21.5740961 Z" id="Shape"></path>
                <path d="M9.64689702,16.206206 C7.98117493,15.3949819 6.83333333,13.685704 6.83333333,11.7083333 C6.83333333,8.94690958 9.07190958,6.70833333 11.8333333,6.70833333 C14.5947571,6.70833333 16.8333333,8.94690958 16.8333333,11.7083333 C16.8333333,13.685704 15.6854917,15.3949819 14.0197696,16.206206 L13.5724231,15.3115129 C14.9104367,14.664527 15.8333333,13.2942072 15.8333333,11.7083333 C15.8333333,9.49919433 14.0424723,7.70833333 11.8333333,7.70833333 C9.62419433,7.70833333 7.83333333,9.49919433 7.83333333,11.7083333 C7.83333333,13.2942072 8.75623,14.664527 10.0942435,15.3115129 L9.64689702,16.206206 Z" id="Shape"></path>
                <path d="M12.2840439,18.0429802 L12.2840439,18.0429802 L8.17147717,26.2681136 C8.26074608,26.0895758 8.02608682,25.7083333 7.8287309,25.7083333 L15.8379358,25.7083333 C15.6421563,25.7083333 15.404266,26.0862667 15.4951895,26.2681136 L11.3826228,18.0429802 C11.5069675,18.2916697 12.1579105,18.2952469 12.2840439,18.0429802 L12.2840439,18.0429802 Z M11.3896167,17.5957666 C11.6346746,17.1056508 12.035532,17.1127306 12.27705,17.5957666 L16.3896167,25.8209 C16.6346746,26.3110159 16.3776689,26.7083333 15.8379358,26.7083333 L7.8287309,26.7083333 C7.278988,26.7083333 7.03553196,26.3039361 7.27704998,25.8209 L11.3896167,17.5957666 L11.3896167,17.5957666 Z" id="Shape"></path>
            </g>
        </g>
    </g>
</svg>