<?xml version="1.0" encoding="UTF-8" standalone="no"?>
<svg width="50px" height="50px" viewBox="0 0 50 50" version="1.1" xmlns="http://www.w3.org/2000/svg" xmlns:xlink="http://www.w3.org/1999/xlink" xmlns:sketch="http://www.bohemiancoding.com/sketch/ns">
    <!-- Generator: Sketch 3.5.1 (25234) - http://www.bohemiancoding.com/sketch -->
    <title>chuban</title>
    <desc>Created with Sketch.</desc>
    <defs></defs>
    <g id="解决方案" stroke="none" stroke-width="1" fill="none" fill-rule="evenodd" sketch:type="MSPage">
        <g id="chuban" sketch:type="MSLayerGroup" fill="#919191">
            <path d="M25,49 L25,49 C38.254834,49 49,38.254834 49,25 C49,11.745166 38.254834,1 25,1 C11.745166,1 1,11.745166 1,25 C1,38.254834 11.745166,49 25,49 L25,49 Z M25,50 L25,50 C11.1928813,50 0,38.8071187 0,25 C0,11.1928813 11.1928813,0 25,0 C38.8071187,0 50,11.1928813 50,25 C50,38.8071187 38.8071187,50 25,50 L25,50 Z" id="Shape" sketch:type="MSShapeGroup"></path>
            <g id="icon" transform="translate(11.500000, 15.000000)" sketch:type="MSShapeGroup">
                <path d="M1.5,3.5 L1.5,3.5 C1.5,4.87882671 2.6177186,6 3.99192389,6 L15.0080761,6 C16.3822805,6 17.5,4.88025053 17.5,3.5 C17.5,2.12117329 16.3822814,1 15.0080761,1 L3.99192389,1 C2.61771953,1 1.5,2.11974947 1.5,3.5 L1.5,3.5 Z M0.5,3.5 C0.5,1.56700338 2.06589374,0 3.99192389,0 L15.0080761,0 C16.9366124,0 18.5,1.57093664 18.5,3.5 C18.5,5.43299662 16.9341063,7 15.0080761,7 L3.99192389,7 C2.06338758,7 0.5,5.42906336 0.5,3.5 L0.5,3.5 Z" id="Shape"></path>
                <path d="M24.5,9.5 L24.5,9.5 C24.5,8.11974947 23.3822805,7 22.0080761,7 L10.9919239,7 C9.6177186,7 8.5,8.12117329 8.5,9.5 C8.5,10.8802505 9.61771953,12 10.9919239,12 L22.0080761,12 C23.3822814,12 24.5,10.8788267 24.5,9.5 L24.5,9.5 Z M25.5,9.5 L25.5,9.5 C25.5,11.4290634 23.9366124,13 22.0080761,13 L10.9919239,13 C9.06589374,13 7.5,11.4329966 7.5,9.5 C7.5,7.57093664 9.06338758,6 10.9919239,6 L22.0080761,6 C23.9341063,6 25.5,7.56700338 25.5,9.5 L25.5,9.5 Z" id="Shape"></path>
                <path d="M5.5,15.5 L5.5,15.5 C5.5,16.8788267 6.6177186,18 7.99192389,18 L19.0080761,18 C20.3822805,18 21.5,16.8802505 21.5,15.5 C21.5,14.1211733 20.3822814,13 19.0080761,13 L7.99192389,13 C6.61771953,13 5.5,14.1197495 5.5,15.5 L5.5,15.5 Z M4.5,15.5 C4.5,13.5670034 6.06589374,12 7.99192389,12 L19.0080761,12 C20.9366124,12 22.5,13.5709366 22.5,15.5 C22.5,17.4329966 20.9341063,19 19.0080761,19 L7.99192389,19 C6.06338758,19 4.5,17.4290634 4.5,15.5 L4.5,15.5 Z" id="Shape"></path>
            </g>
        </g>
    </g>
</svg>