<?xml version="1.0" encoding="UTF-8" standalone="no"?>
<svg width="82px" height="82px" viewBox="0 0 82 82" version="1.1" xmlns="http://www.w3.org/2000/svg" xmlns:xlink="http://www.w3.org/1999/xlink" xmlns:sketch="http://www.bohemiancoding.com/sketch/ns">
    <!-- Generator: Sketch 3.4.4 (17249) - http://www.bohemiancoding.com/sketch -->
    <title>多屏</title>
    <desc>Created with Sketch.</desc>
    <defs></defs>
    <g id="解决方案" stroke="none" stroke-width="1" fill="none" fill-rule="evenodd" sketch:type="MSPage">
        <g id="解决方案_新闻(模板)" sketch:type="MSArtboardGroup" transform="translate(-959.000000, -109.000000)" stroke="#E77677">
            <g id="多屏" sketch:type="MSLayerGroup" transform="translate(960.000000, 110.000000)">
                <circle id="base" sketch:type="MSShapeGroup" cx="40" cy="40" r="40"></circle>
                <g id="icon" transform="translate(15.000000, 19.000000)" stroke-width="2" sketch:type="MSShapeGroup">
                    <path d="M5,6.02507837 L5,2.99488768 C5,1.34085689 6.34676062,0 8.0049167,0 L46.9950833,0 C48.654653,0 50,1.35196465 50,3.0005775 L50,27.9994225 C50,29.6565957 48.6480353,31 46.9994225,31 L19,31" id="shape"></path>
                    <path d="M24,42 L2.99109042,42 C1.33915679,42 0,40.6480353 0,38.9994225 L0,14.0005775 C0,12.3434043 1.34331197,11 2.99420208,11 L17.0057979,11 C18.6594501,11 20,12.3478786 20,13.9915651 L20,32.0357143" id="shape"></path>
                    <path d="M41,32 L45,38.9282032" id="shape" stroke-linecap="square"></path>
                </g>
            </g>
        </g>
    </g>
</svg>