<?xml version="1.0" encoding="UTF-8" standalone="no"?>
<svg width="50px" height="50px" viewBox="0 0 50 50" version="1.1" xmlns="http://www.w3.org/2000/svg" xmlns:xlink="http://www.w3.org/1999/xlink" xmlns:sketch="http://www.bohemiancoding.com/sketch/ns">
    <!-- Generator: Sketch 3.5.1 (25234) - http://www.bohemiancoding.com/sketch -->
    <title>duoping</title>
    <desc>Created with Sketch.</desc>
    <defs></defs>
    <g id="解决方案" stroke="none" stroke-width="1" fill="none" fill-rule="evenodd" sketch:type="MSPage">
        <g id="duoping" sketch:type="MSLayerGroup">
            <path d="M25,49 L25,49 C38.254834,49 49,38.254834 49,25 C49,11.745166 38.254834,1 25,1 C11.745166,1 1,11.745166 1,25 C1,38.254834 11.745166,49 25,49 L25,49 Z M25,50 L25,50 C11.1928813,50 0,38.8071187 0,25 C0,11.1928813 11.1928813,0 25,0 C38.8071187,0 50,11.1928813 50,25 C50,38.8071187 38.8071187,50 25,50 L25,50 Z" id="Shape" fill="#919191" sketch:type="MSShapeGroup"></path>
            <g id="icon" transform="translate(11.041667, 15.208333)" sketch:type="MSShapeGroup">
                <path d="M10.9583333,14.7916667 L26,14.7916667 L26,1.79166667 L4.95833333,1.79166667 L4.95833333,3.79166667 L3.95833333,3.79166667 L3.95833333,15.7916667 L10.9583333,15.7916667 L10.9583333,14.7916667 Z M3.95833333,1.79915064 C3.95833333,1.24273261 4.39725109,0.791666667 4.96140388,0.791666667 L25.9552628,0.791666667 C26.5092434,0.791666667 26.9583333,1.24058687 26.9583333,1.79915064 L26.9583333,14.7841827 C26.9583333,15.3406007 26.5194156,15.7916667 25.9552628,15.7916667 L3.95833333,15.7916667 L3.95833333,1.79915064 Z" id="shape" fill="#919191"></path>
                <path d="M9.95833333,15.7916667 L9.95833333,5.79166667 L1.95833333,5.79166667 L1.95833333,17.7916667 L9.45833333,17.7916667 L10.9583333,17.7916667 L10.9583333,15.7916667 L9.95833333,15.7916667 Z M10.9583333,18.7916667 L1.9537309,18.7916667 C1.403988,18.7916667 0.958333333,18.3417179 0.958333333,17.7848212 L0.958333333,5.79851214 C0.958333333,5.24244674 1.41399773,4.79166667 1.9537309,4.79166667 L9.96293577,4.79166667 C10.5126787,4.79166667 10.9583333,5.23650364 10.9583333,5.78724417 L10.9583333,15.7916667 L10.9583333,18.7916667 Z" id="shape" fill="#919191"></path>
                <path d="M14.8154762,18.7916667 L19.1011905,18.7916667 L19.9583333,18.7916667 L19.9583333,17.7916667 L19.1011905,17.7916667 L14.8154762,17.7916667 L13.9583333,17.7916667 L13.9583333,18.7916667 L14.8154762,18.7916667 L14.8154762,18.7916667 Z" id="Shape" fill="#979797"></path>
            </g>
        </g>
    </g>
</svg>