<?xml version="1.0" encoding="UTF-8" standalone="no"?>
<svg width="82px" height="82px" viewBox="0 0 82 82" version="1.1" xmlns="http://www.w3.org/2000/svg" xmlns:xlink="http://www.w3.org/1999/xlink" xmlns:sketch="http://www.bohemiancoding.com/sketch/ns">
    <!-- Generator: Sketch 3.4.4 (17249) - http://www.bohemiancoding.com/sketch -->
    <title>OTT</title>
    <desc>Created with Sketch.</desc>
    <defs></defs>
    <g id="解决方案" stroke="none" stroke-width="1" fill="none" fill-rule="evenodd" sketch:type="MSPage">
        <g id="解决方案_新闻(模板)" sketch:type="MSArtboardGroup" transform="translate(-1079.000000, -109.000000)">
            <g id="OTT" sketch:type="MSLayerGroup" transform="translate(1080.000000, 110.000000)">
                <circle id="base" stroke="#F7829D" sketch:type="MSShapeGroup" cx="40" cy="40" r="40"></circle>
                <g id="icon" transform="translate(13.000000, 18.000000)" sketch:type="MSShapeGroup">
                    <rect id="shape" fill="#F7829D" x="6" y="10" width="8" height="8" rx="1"></rect>
                    <rect id="shape" fill="#FDC7D3" x="6" y="21" width="8" height="8" rx="1"></rect>
                    <rect id="shape" fill="#FEC7D4" x="17" y="10" width="8" height="8" rx="1"></rect>
                    <rect id="shape" fill="#F7829D" x="17" y="21" width="8" height="8" rx="1"></rect>
                    <rect id="shape" fill="#F7829D" x="28" y="10" width="8" height="8" rx="1"></rect>
                    <rect id="shape" fill="#F7829D" x="28" y="21" width="8" height="8" rx="1"></rect>
                    <rect id="shape" fill="#F7829D" x="39" y="10" width="8" height="8" rx="1"></rect>
                    <rect id="shape" fill="#FEC7D4" x="39" y="21" width="8" height="8" rx="1"></rect>
                    <rect id="shape" stroke="#F7829D" stroke-width="2" x="0" y="0" width="54" height="39" rx="3"></rect>
                    <path d="M18,43 L38,43" id="shape" stroke="#F7829D" stroke-width="2" stroke-linecap="square"></path>
                </g>
            </g>
        </g>
    </g>
</svg>