<?xml version="1.0" encoding="UTF-8" standalone="no"?>
<svg width="82px" height="82px" viewBox="0 0 82 82" version="1.1" xmlns="http://www.w3.org/2000/svg" xmlns:xlink="http://www.w3.org/1999/xlink" xmlns:sketch="http://www.bohemiancoding.com/sketch/ns">
    <!-- Generator: Sketch 3.4.4 (17249) - http://www.bohemiancoding.com/sketch -->
    <title>商业</title>
    <desc>Created with Sketch.</desc>
    <defs></defs>
    <g id="解决方案" stroke="none" stroke-width="1" fill="none" fill-rule="evenodd" sketch:type="MSPage">
        <g id="解决方案_新闻(模板)" sketch:type="MSArtboardGroup" transform="translate(-599.000000, -109.000000)">
            <g id="商业" sketch:type="MSLayerGroup" transform="translate(600.000000, 110.000000)">
                <circle id="base" stroke="#48BEBE" sketch:type="MSShapeGroup" cx="40" cy="40" r="40"></circle>
                <g id="icon" transform="translate(27.000000, 18.000000)" sketch:type="MSShapeGroup">
                    <path d="M2.844,27.056 C2.92933376,28.5920077 3.27066368,29.9466608 3.868,31.12 C4.46533632,32.2933392 5.2439952,33.2959958 6.204,34.128 C7.1640048,34.9600042 8.2839936,35.5893312 9.564,36.016 C10.8440064,36.4426688 12.2306592,36.656 13.724,36.656 C14.790672,36.656 15.9319939,36.560001 17.148,36.368 C18.3640061,36.175999 19.4946614,35.8240026 20.54,35.312 C21.5853386,34.7999974 22.4493299,34.0853379 23.132,33.168 C23.8146701,32.2506621 24.156,31.088007 24.156,29.68 C24.156,27.8453242 23.6013389,26.4586714 22.492,25.52 C21.3826611,24.5813286 19.9853418,23.8560026 18.3,23.344 C16.6146582,22.8319974 14.801343,22.4160016 12.86,22.096 C10.918657,21.7759984 9.10534176,21.2960032 7.42,20.656 C5.73465824,20.0159968 4.33733888,19.1093392 3.228,17.936 C2.11866112,16.7626608 1.564,15.0453446 1.564,12.784 C1.564,11.1626586 1.92666304,9.80800544 2.652,8.72 C3.37733696,7.63199456 4.30532768,6.7680032 5.436,6.128 C6.56667232,5.4879968 7.83599296,5.02933472 9.244,4.752 C10.652007,4.47466528 12.059993,4.336 13.468,4.336 C15.1746752,4.336 16.7746592,4.52799808 18.268,4.912 C19.7613408,5.29600192 21.0519946,5.9146624 22.14,6.768 C23.2280054,7.6213376 24.0813302,8.70932672 24.7,10.032 C25.3186698,11.3546733 25.628,12.9546573 25.628,14.832 L23.196,14.832 C23.196,13.3386592 22.9506691,12.058672 22.46,10.992 C21.9693309,9.925328 21.286671,9.06133664 20.412,8.4 C19.537329,7.73866336 18.5026726,7.2480016 17.308,6.928 C16.1133274,6.6079984 14.8333402,6.448 13.468,6.448 C12.3586611,6.448 11.2386723,6.5546656 10.108,6.768 C8.97732768,6.9813344 7.96400448,7.34399744 7.068,7.856 C6.17199552,8.36800256 5.43600288,9.02932928 4.86,9.84 C4.28399712,10.6506707 3.996,11.6319942 3.996,12.784 C3.996,14.1066733 4.3159968,15.1733293 4.956,15.984 C5.5960032,16.7946707 6.43866144,17.4453309 7.484,17.936 C8.52933856,18.4266691 9.70266016,18.8213318 11.004,19.12 C12.3053398,19.4186682 13.6173267,19.7173318 14.94,20.016 C16.5613414,20.3146682 18.0866595,20.6666646 19.516,21.072 C20.9453405,21.4773354 22.1826614,22.0319965 23.228,22.736 C24.2733386,23.4400035 25.0946637,24.3466611 25.692,25.456 C26.2893363,26.5653389 26.588,27.9733248 26.588,29.68 C26.588,31.472009 26.1826707,32.9439942 25.372,34.096 C24.5613293,35.2480058 23.5373395,36.1759965 22.3,36.88 C21.0626605,37.5840035 19.6866742,38.0746653 18.172,38.352 C16.6573258,38.6293347 15.1746739,38.768 13.724,38.768 C11.8466573,38.768 10.108008,38.5226691 8.508,38.032 C6.907992,37.5413309 5.51067264,36.7946717 4.316,35.792 C3.12132736,34.7893283 2.18267008,33.5626739 1.5,32.112 C0.81732992,30.6613261 0.45466688,28.9760096 0.412,27.056 L2.844,27.056 Z" id="shape" fill="#48BEBE"></path>
                    <path d="M13,0.5 L13,3.5" id="shape" stroke="#48BEBE" stroke-width="2" stroke-linecap="square"></path>
                    <path d="M13,39.5 L13,42.5" id="shape" stroke="#48BEBE" stroke-width="2" stroke-linecap="square"></path>
                </g>
            </g>
        </g>
    </g>
</svg>