<?xml version="1.0" encoding="UTF-8" standalone="no"?>
<svg width="50px" height="50px" viewBox="0 0 50 50" version="1.1" xmlns="http://www.w3.org/2000/svg" xmlns:xlink="http://www.w3.org/1999/xlink" xmlns:sketch="http://www.bohemiancoding.com/sketch/ns">
    <!-- Generator: Sketch 3.5.1 (25234) - http://www.bohemiancoding.com/sketch -->
    <title>shangye</title>
    <desc>Created with Sketch.</desc>
    <defs></defs>
    <g id="解决方案" stroke="none" stroke-width="1" fill="none" fill-rule="evenodd" sketch:type="MSPage">
        <g id="shangye" sketch:type="MSLayerGroup">
            <path d="M25,49 L25,49 C38.254834,49 49,38.254834 49,25 C49,11.745166 38.254834,1 25,1 C11.745166,1 1,11.745166 1,25 C1,38.254834 11.745166,49 25,49 L25,49 Z M25,50 L25,50 C11.1928813,50 0,38.8071187 0,25 C0,11.1928813 11.1928813,0 25,0 C38.8071187,0 50,11.1928813 50,25 C50,38.8071187 38.8071187,50 25,50 L25,50 Z" id="Shape" fill="#919191" sketch:type="MSShapeGroup"></path>
            <g id="icon" transform="translate(18.708333, 13.750000)" sketch:type="MSShapeGroup">
                <path d="M6.29166667,3.33617101 L6.29166667,1.20652174 L6.29166667,0.25 L7.29166667,0.25 L7.29166667,1.20652174 L7.29166667,3.37461877 C7.03150745,3.34732591 6.7673878,3.33333333 6.5,3.33333333 C6.4303296,3.33333333 6.36088107,3.33428331 6.29166667,3.33617101 Z M6.29166667,18.3304957 L6.29166667,21.2934783 L6.29166667,22.25 L7.29166667,22.25 L7.29166667,21.2934783 L7.29166667,18.2920479 C7.03150745,18.3193408 6.7673878,18.3333333 6.5,18.3333333 C6.4303296,18.3333333 6.36088107,18.3323834 6.29166667,18.3304957 Z" id="Shape" fill="#979797"></path>
                <path d="M1.67884382,13.0742565 C1.71554613,13.7573082 1.86235315,14.3597129 2.11926929,14.8814885 C2.37618543,15.4032642 2.71108895,15.8491385 3.12398989,16.2191248 C3.53689083,16.5891112 4.01860137,16.8689685 4.56913596,17.0587051 C5.11967054,17.2484417 5.71607407,17.3433086 6.35836442,17.3433086 C6.81714324,17.3433086 7.30802922,17.3006185 7.83103708,17.215237 C8.35404494,17.1298555 8.8403432,16.9733252 9.28994644,16.7456413 C9.73954969,16.5179573 10.111155,16.2001533 10.4047734,15.7922196 C10.6983919,15.384286 10.8451989,14.8672615 10.8451989,14.2411307 C10.8451989,13.4252634 10.6066375,12.8086287 10.1295075,12.3912082 C9.65237751,11.9737877 9.05138627,11.6512403 8.32651573,11.4235564 C7.60164519,11.1958725 6.82173289,11.0108821 5.98675543,10.8685796 C5.15177797,10.7262772 4.37186567,10.5128267 3.64699513,10.2282218 C2.92212459,9.94361692 2.32113335,9.5404327 1.84400337,9.01865706 C1.36687339,8.49688143 1.12831199,7.73320309 1.12831199,6.72759913 C1.12831199,6.00660007 1.28429445,5.40419542 1.59626404,4.9203671 C1.90823364,4.43653878 2.30736523,4.05232794 2.79367079,3.76772305 C3.27997634,3.48311816 3.82591495,3.27915438 4.431503,3.15582559 C5.03709104,3.0324968 5.64267001,2.97083333 6.24825805,2.97083333 C6.98230417,2.97083333 7.67046208,3.05621352 8.31275243,3.22697646 C8.95504279,3.39773939 9.51015684,3.67285333 9.97811124,4.05232652 C10.4460656,4.43179971 10.8130832,4.91562077 11.0791749,5.50380421 C11.3452666,6.09198766 11.4783105,6.80348922 11.4783105,7.63833024 L10.4323,7.63833024 C10.4323,6.97425215 10.3267825,6.40505091 10.1157442,5.93070942 C9.90470594,5.45636793 9.61109189,5.07215709 9.23489326,4.77806537 C8.85869462,4.48397364 8.41368584,4.26577983 7.89985356,4.12347739 C7.38602128,3.98117494 6.83549495,3.91002478 6.24825805,3.91002478 C5.77112808,3.91002478 5.28941754,3.95745822 4.80311199,4.05232652 C4.31680643,4.14719482 3.88097309,4.3084685 3.49559888,4.53615242 C3.11022466,4.76383633 2.79367203,5.05792364 2.54593146,5.41842317 C2.2981909,5.7789227 2.17432247,6.21531033 2.17432247,6.72759913 C2.17432247,7.31578258 2.31195405,7.79011695 2.58722135,8.15061648 C2.86248864,8.51111601 3.22491848,8.80045998 3.67452172,9.01865706 C4.12412497,9.23685415 4.62877411,9.41235787 5.18848427,9.54517348 C5.74819443,9.6779891 6.31248392,9.81080272 6.88136966,9.94361834 C7.57871347,10.076434 8.23475735,10.2329643 8.84952097,10.4132141 C9.4642846,10.5934638 9.99646005,10.8401177 10.4460633,11.1531831 C10.8956665,11.4662485 11.2489209,11.8694327 11.5058371,12.3627478 C11.7627532,12.856063 11.8912094,13.4821844 11.8912094,14.2411307 C11.8912094,15.0380244 11.716876,15.6926059 11.3682041,16.2048947 C11.0195322,16.7171835 10.5791112,17.1298544 10.0469277,17.4429198 C9.51474428,17.7559851 8.92292848,17.974179 8.27146255,18.0975077 C7.61999662,18.2208365 6.98230362,18.2825 6.35836442,18.2825 C5.55091369,18.2825 4.80311543,18.1734031 4.11494719,17.955206 C3.42677896,17.7370089 2.82578771,17.4049749 2.31195543,16.9590939 C1.79812315,16.5132129 1.39440384,15.9677283 1.10078539,15.3226239 C0.807166946,14.6775195 0.651184486,13.9280712 0.632833333,13.0742565 L1.67884382,13.0742565 Z" id="shape" fill="#868686"></path>
            </g>
        </g>
    </g>
</svg>