<?xml version="1.0" encoding="UTF-8" standalone="no"?>
<svg width="54px" height="50px" viewBox="0 0 54 50" version="1.1" xmlns="http://www.w3.org/2000/svg" xmlns:xlink="http://www.w3.org/1999/xlink" xmlns:sketch="http://www.bohemiancoding.com/sketch/ns">
    <!-- Generator: Sketch 3.5.1 (25234) - http://www.bohemiancoding.com/sketch -->
    <title>WRP</title>
    <desc>Created with Sketch.</desc>
    <defs></defs>
    <g id="产品" stroke="none" stroke-width="1" fill="none" fill-rule="evenodd" sketch:type="MSPage">
        <g id="客户端中间件案例1" sketch:type="MSArtboardGroup" transform="translate(-295.000000, -78.000000)" fill="#919191">
            <g id="SecondNav" sketch:type="MSLayerGroup" transform="translate(0.000000, 67.000000)">
                <g id="WRP" transform="translate(295.000000, 11.000000)" sketch:type="MSShapeGroup">
                    <path d="M16,1.99091407 C16,0.891362589 16.9018508,0 18.0028592,0 L51.9971408,0 C53.1032894,0 54,0.889064278 54,1.99091407 L54,48.0090859 C54,49.1086374 53.0981492,50 51.9971408,50 L18.0028592,50 C16.8967106,50 16,49.1109357 16,48.0090859 L16,1.99091407 Z M19,45 L16,45 L16,19 L17,19 L17,3 L53,3 L53,44 L19,44 L19,45 Z M34,1 L36,1 L36,2 L34,2 L34,1 Z M34,46 L36,46 L36,47 L34,47 L34,46 Z" id="shape"></path>
                    <path d="M0,17.9999204 C0,16.8953949 0.898212381,16 1.99079514,16 L18.0092049,16 C19.1086907,16 20,16.8919411 20,17.9999204 L20,48.0000796 C20,49.1046051 19.1017876,50 18.0092049,50 L1.99079514,50 C0.891309342,50 0,49.1080589 0,48.0000796 L0,17.9999204 Z M1,19 L19,19 L19,45 L1,45 L1,19 Z M14,47 L16,47 L16,48 L14,48 L14,47 Z M9,47 L11,47 L11,48 L9,48 L9,47 Z M4,47 L6,47 L6,48 L4,48 L4,47 Z M9,17 L11,17 L11,18 L9,18 L9,17 Z" id="shape"></path>
                    <path d="M31.7748845,17.3665939 C31.2877649,16.7038805 31,15.8855458 31,15 C31,12.790861 32.790861,11 35,11 C37.209139,11 39,12.790861 39,15 C39,17.0398088 37.4731558,18.7230041 35.5,18.9690531 L35.5,32.0309469 C37.4731558,32.2769959 39,33.9601912 39,36 C39,38.209139 37.209139,40 35,40 C32.790861,40 31,38.209139 31,36 C31,35.9745044 31.0002385,35.9490645 31.0007135,35.9236825 L13.8563108,33.066282 C13.3896422,34.7577781 11.8398893,36 10,36 C7.790861,36 6,34.209139 6,32 C6,29.790861 7.790861,28 10,28 C11.1546381,28 12.1950119,28.4892238 12.9251434,29.2716935 L13.2330035,29.0772555 L31.7748845,17.3665939 Z M32.4782398,18.1051171 C33.0444608,18.5655247 33.7390403,18.8741628 34.5,18.9690531 L34.5,32.0309469 C32.8840282,32.2324557 31.567409,33.397895 31.1436892,34.933718 L13.9992865,32.0763175 C13.9997615,32.0509355 14,32.0254956 14,32 C14,31.3057549 13.8231352,30.6528188 13.5120054,30.0837915 L13.7669965,29.9227445 L32.4782398,18.1051171 Z M32.6232257,16.8307994 C32.2324465,16.324233 32,15.6892619 32,15 C32,13.3431458 33.3431458,12 35,12 C36.6568542,12 38,13.3431458 38,15 C38,16.6568542 36.6568542,18 35,18 C34.1317904,18 33.3497212,17.6311891 32.8019147,17.0416898 L32.655748,16.8102591 L32.6232257,16.8307994 Z M10,35 C11.6568542,35 13,33.6568542 13,32 C13,30.3431458 11.6568542,29 10,29 C8.34314575,29 7,30.3431458 7,32 C7,33.6568542 8.34314575,35 10,35 Z M35,39 C36.6568542,39 38,37.6568542 38,36 C38,34.3431458 36.6568542,33 35,33 C33.3431458,33 32,34.3431458 32,36 C32,37.6568542 33.3431458,39 35,39 Z" id="shape"></path>
                </g>
            </g>
        </g>
    </g>
</svg>